<svg width="60" height="60" viewBox="0 0 60 60" fill="none" xmlns="http://www.w3.org/2000/svg">
<path d="M30.1125 2.08869C35.1408 2.09025 40.0745 3.45566 44.3881 6.03947C48.7017 8.62328 52.2337 12.3287 54.6079 16.7612C56.9821 21.1936 58.1096 26.187 57.8703 31.2096C57.631 36.2321 56.0338 41.0957 53.2489 45.2824L57.9104 57.6845L42.3008 54.8619C38.5421 56.6987 34.4173 57.6634 30.2338 57.6841C26.0503 57.7049 21.9161 56.7811 18.1394 54.9816C14.3626 53.1821 11.0407 50.5534 8.42136 47.2914C5.80197 44.0294 3.95263 40.2182 3.0112 36.142C2.06977 32.0658 2.06054 27.8297 2.98418 23.7494C3.90782 19.6691 5.74051 15.8499 8.34565 12.5765C10.9508 9.30307 14.2612 6.6599 18.03 4.84397C21.7989 3.02805 25.929 2.08622 30.1125 2.08869Z" fill="#0DCDAD" stroke="white" stroke-width="3" stroke-linecap="round" stroke-linejoin="round"/>
<path d="M38.3094 32.0249C37.1284 32.0249 36.1711 31.0676 36.1711 29.8866C36.1711 28.7057 37.1284 27.7483 38.3094 27.7483C39.4903 27.7483 40.4477 28.7057 40.4477 29.8866C40.4477 31.0676 39.4903 32.0249 38.3094 32.0249Z" fill="white" stroke="white" stroke-width="3" stroke-linecap="round" stroke-linejoin="round"/>
<path d="M20.1338 32.0249C18.9529 32.0249 17.9955 31.0676 17.9955 29.8866C17.9955 28.7057 18.9529 27.7483 20.1338 27.7483C21.3148 27.7483 22.2721 28.7057 22.2721 29.8866C22.2721 31.0676 21.3148 32.0249 20.1338 32.0249Z" fill="white" stroke="white" stroke-width="3" stroke-linecap="round" stroke-linejoin="round"/>
</svg>
