<svg width="14" height="16" viewBox="0 0 14 16" fill="none" xmlns="http://www.w3.org/2000/svg">
<path d="M8 3.60229C8 3.60229 9.27678 3.47546 9.94265 2.8413C10.6085 2.20714 10.7354 0.866943 10.7354 0.866943C10.7354 0.866943 11.0275 2.27698 11.6232 2.8413C12.1571 3.34716 13.4707 3.60229 13.4707 3.60229C13.4707 3.60229 12.1695 4.06626 11.6232 4.61695C11.089 5.15539 10.7354 6.33765 10.7354 6.33765C10.7354 6.33765 10.4545 5.14843 9.94265 4.61695C9.38328 4.03611 8 3.60229 8 3.60229Z" fill="white"/>
<path d="M0 7.02991C0 7.02991 1.61068 6.86991 2.45068 6.06991C3.29068 5.26991 3.45068 3.57923 3.45068 3.57923C3.45068 3.57923 3.81924 5.35801 4.57068 6.06991C5.24427 6.70805 6.90136 7.02991 6.90136 7.02991C6.90136 7.02991 5.25987 7.61521 4.57068 8.30991C3.89681 8.98916 3.45068 10.4806 3.45068 10.4806C3.45068 10.4806 3.09636 8.98038 2.45068 8.30991C1.74503 7.57717 0 7.02991 0 7.02991Z" fill="white"/>
<path d="M5 12.5923C5 12.5923 6.18594 12.4745 6.80444 11.8855C7.42293 11.2965 7.54074 10.0516 7.54074 10.0516C7.54074 10.0516 7.81211 11.3613 8.3654 11.8855C8.86137 12.3554 10.0815 12.5923 10.0815 12.5923C10.0815 12.5923 8.87285 13.0233 8.3654 13.5348C7.86923 14.0349 7.54074 15.1331 7.54074 15.1331C7.54074 15.1331 7.27986 14.0285 6.80444 13.5348C6.28487 12.9953 5 12.5923 5 12.5923Z" fill="white"/>
</svg>
